<svg width="64" height="64" viewBox="0 0 64 64" fill="none" xmlns="http://www.w3.org/2000/svg">
    <defs>
        <linearGradient id="cookly-favicon-gradient" x1="12" y1="10" x2="52" y2="54" gradientUnits="userSpaceOnUse">
            <stop stop-color="#8A5CF6"/>
            <stop offset="1" stop-color="#2DD4BF"/>
        </linearGradient>
    </defs>
    <path d="M49.81,24.36c0-4.01-3.31-7.32-7.32-7.32c-0.67,0-1.3,0.1-1.92,0.26c-1.55-3.5-4.79-5.94-8.57-5.94 c-5.01,0-9.1,3.85-9.44,8.71c-0.49-0.33-1.02-0.56-1.58-0.68c-4.18-1.58-8.81,0.1-10.39,4.28 c-1.58,4.18,0.1,8.81,4.28,10.39c4.18,1.58,8.81-0.1,10.39-4.28c0.23-0.67,0.37-1.38,0.41-2.1h11.7 c0.23,2.58,2.23,4.58,4.75,4.58c2.81,0,5.09-2.28,5.09-5.09c0-0.11-0.01-0.22-0.02-0.32c1.35-0.61,2.2-1.81,2.02-3.27Z" fill="url(#cookly-favicon-gradient)"/>
    <path d="M46.4,46.4v6.4H17.6v-6.4c0-3.58,2.82-6.4,6.4-6.4h16C43.58,40,46.4,42.82,46.4,46.4Z" fill="url(#cookly-favicon-gradient)"/>
    <path d="M43.5 17.5C45.8276 18.8276 46.5 20.6522 46.5 22.5" stroke="white" strokeOpacity="0.4" strokeWidth="2" strokeLinecap="round"/>
</svg>
